<svg width="20" height="20" viewBox="0 0 20 20" fill="none" xmlns="http://www.w3.org/2000/svg">
<path d="M10.8334 18.3334H4.16669C2.50002 18.3334 1.66669 17.5 1.66669 15.8334V9.16669C1.66669 7.50002 2.50002 6.66669 4.16669 6.66669H8.33335V15.8334C8.33335 17.5 9.16669 18.3334 10.8334 18.3334Z" stroke="#292D32" stroke-width="1.5" stroke-miterlimit="10" stroke-linecap="round" stroke-linejoin="round"/>
<path opacity="0.4" d="M8.42501 3.33331C8.35834 3.58331 8.33335 3.85831 8.33335 4.16665V6.66665H4.16669V4.99998C4.16669 4.08331 4.91669 3.33331 5.83335 3.33331H8.42501Z" stroke="#292D32" stroke-width="1.5" stroke-miterlimit="10" stroke-linecap="round" stroke-linejoin="round"/>
<path opacity="0.4" d="M11.6667 6.66669V10.8334" stroke="#292D32" stroke-width="1.5" stroke-miterlimit="10" stroke-linecap="round" stroke-linejoin="round"/>
<path opacity="0.4" d="M15 6.66669V10.8334" stroke="#292D32" stroke-width="1.5" stroke-miterlimit="10" stroke-linecap="round" stroke-linejoin="round"/>
<path d="M14.1667 14.1667H12.5C12.0417 14.1667 11.6667 14.5417 11.6667 15V18.3334H15V15C15 14.5417 14.625 14.1667 14.1667 14.1667Z" stroke="#292D32" stroke-width="1.5" stroke-miterlimit="10" stroke-linecap="round" stroke-linejoin="round"/>
<path opacity="0.4" d="M5 10.8333V14.1666" stroke="#292D32" stroke-width="1.5" stroke-miterlimit="10" stroke-linecap="round" stroke-linejoin="round"/>
<path d="M8.33331 15.8334V4.16669C8.33331 2.50002 9.16665 1.66669 10.8333 1.66669H15.8333C17.5 1.66669 18.3333 2.50002 18.3333 4.16669V15.8334C18.3333 17.5 17.5 18.3334 15.8333 18.3334H10.8333C9.16665 18.3334 8.33331 17.5 8.33331 15.8334Z" stroke="#292D32" stroke-width="1.5" stroke-miterlimit="10" stroke-linecap="round" stroke-linejoin="round"/>
</svg>
