<svg width="20" height="20" viewBox="0 0 20 20" fill="none" xmlns="http://www.w3.org/2000/svg">
<path d="M7.22499 11.6667H3.33332C2.41666 11.6667 1.66666 12.4167 1.66666 13.3334V18.3334H7.22499V11.6667Z" stroke="#292D32" stroke-width="1.5" stroke-miterlimit="10" stroke-linecap="round" stroke-linejoin="round"/>
<path d="M11.1083 8.33331H8.88334C7.96667 8.33331 7.21667 9.08331 7.21667 9.99998V18.3333H12.775V9.99998C12.775 9.08331 12.0333 8.33331 11.1083 8.33331Z" stroke="#292D32" stroke-width="1.5" stroke-miterlimit="10" stroke-linecap="round" stroke-linejoin="round"/>
<path d="M16.6667 14.1667H12.775V18.3334H18.3333V15.8334C18.3333 14.9167 17.5833 14.1667 16.6667 14.1667Z" stroke="#292D32" stroke-width="1.5" stroke-miterlimit="10" stroke-linecap="round" stroke-linejoin="round"/>
<path opacity="0.4" d="M10.4333 1.72497L10.875 2.60831C10.9333 2.73331 11.0917 2.84997 11.225 2.86664L12.025 2.99997C12.5333 3.08331 12.6583 3.45829 12.2917 3.81662L11.6667 4.44162C11.5583 4.54996 11.5 4.74996 11.5333 4.89163L11.7083 5.65831C11.85 6.26664 11.525 6.49998 10.9917 6.18331L10.2417 5.74165C10.1083 5.65831 9.88334 5.65831 9.75001 5.74165L9.00001 6.18331C8.46667 6.49998 8.14167 6.26664 8.28334 5.65831L8.45834 4.89163C8.49168 4.74996 8.43334 4.54162 8.32501 4.44162L7.70834 3.82497C7.34167 3.4583 7.45834 3.09162 7.97501 3.00829L8.77501 2.87498C8.90834 2.84998 9.06668 2.73331 9.12501 2.61665L9.56667 1.73329C9.80834 1.24996 10.1917 1.24997 10.4333 1.72497Z" stroke="#292D32" stroke-width="1.5" stroke-linecap="round" stroke-linejoin="round"/>
</svg>
