<svg width="20" height="20" viewBox="0 0 20 20" fill="none" xmlns="http://www.w3.org/2000/svg">
<path d="M6.66666 18.3333H13.3333C16.6833 18.3333 17.2833 16.9917 17.4583 15.3583L18.0833 8.69167C18.3083 6.65833 17.725 5 14.1667 5H5.83333C2.275 5 1.69166 6.65833 1.91666 8.69167L2.54166 15.3583C2.71666 16.9917 3.31666 18.3333 6.66666 18.3333Z" stroke="#292D32" stroke-width="1.5" stroke-miterlimit="10" stroke-linecap="round" stroke-linejoin="round"/>
<path opacity="0.4" d="M6.66666 4.99996V4.33329C6.66666 2.85829 6.66666 1.66663 9.33332 1.66663H10.6667C13.3333 1.66663 13.3333 2.85829 13.3333 4.33329V4.99996" stroke="#292D32" stroke-width="1.5" stroke-miterlimit="10" stroke-linecap="round" stroke-linejoin="round"/>
<g opacity="0.4">
<path d="M11.6667 10.8333V11.6667C11.6667 11.675 11.6667 11.675 11.6667 11.6833C11.6667 12.5917 11.6583 13.3333 10 13.3333C8.35001 13.3333 8.33334 12.6 8.33334 11.6917V10.8333C8.33334 10 8.33334 10 9.16668 10H10.8333C11.6667 10 11.6667 10 11.6667 10.8333Z" stroke="#292D32" stroke-width="1.5" stroke-miterlimit="10" stroke-linecap="round" stroke-linejoin="round"/>
<path d="M18.0417 9.16675C16.1167 10.5667 13.9167 11.4001 11.6667 11.6834" stroke="#292D32" stroke-width="1.5" stroke-miterlimit="10" stroke-linecap="round" stroke-linejoin="round"/>
<path d="M2.18262 9.39136C4.05762 10.6747 6.17428 11.4497 8.33262 11.6914" stroke="#292D32" stroke-width="1.5" stroke-miterlimit="10" stroke-linecap="round" stroke-linejoin="round"/>
</g>
</svg>
