<svg width="149" height="42" viewBox="0 0 149 42" fill="none" xmlns="http://www.w3.org/2000/svg">
<path d="M36.6381 21.8964C39.424 18.8186 42.0585 15.7408 44.6325 12.4746C45.7832 10.9985 47.3276 9.33395 49.1142 9.74223C50.8402 10.1191 51.6579 12.1919 52.0515 13.9821C52.1928 14.6102 52.314 15.2383 52.4149 15.8664C52.536 16.4946 52.6269 17.1227 52.6874 17.7508C52.7682 18.3789 52.8287 19.0071 52.8691 19.6352C52.9095 20.2633 52.9398 20.8914 52.96 21.5196C52.96 21.9174 52.96 22.3047 52.96 22.6816C52.9398 23.0585 52.9297 23.4353 52.9297 23.8122C52.9095 24.1891 52.8792 24.566 52.8388 24.9428C52.8187 25.3197 52.7884 25.6966 52.748 26.0735C52.8489 26.0107 52.9499 25.9374 53.0508 25.8536C53.1518 25.7908 53.2426 25.7175 53.3233 25.6338C53.4243 25.55 53.5151 25.4663 53.5959 25.3825C53.6968 25.2988 53.7877 25.2046 53.8684 25.0999C54.2924 24.6602 55.2311 23.4668 56.0184 17.7822C56.1194 17.0913 56.2001 16.4004 56.2607 15.7094C56.3414 15.0185 56.402 14.3275 56.4424 13.6366C56.5029 12.9457 56.5433 12.2547 56.5635 11.5638C56.6039 10.8729 56.6241 10.1819 56.6241 9.49098C55.2614 6.94708 53.2022 3.05271 49.629 2.48739C47.267 2.07911 44.9656 3.05271 42.3008 5.5338C38.455 9.11411 35.2754 13.2283 31.7324 17.1541C32.116 17.5729 32.5097 17.9916 32.9134 18.4104C33.297 18.8082 33.7007 19.206 34.1247 19.6038C34.5284 20.0016 34.9423 20.3889 35.3662 20.7658C35.7902 21.1636 36.2141 21.5405 36.6381 21.8964Z" fill="#F4730E"/>
<path d="M25.3114 23.5925C24.9682 23.9484 24.615 24.2939 24.2516 24.6289C23.9084 24.9848 23.545 25.3198 23.1614 25.6339C22.798 25.948 22.4246 26.262 22.041 26.5761C21.6574 26.8692 21.2638 27.1623 20.86 27.4555C18.9523 28.8373 16.8628 29.968 14.622 30.2506C12.6536 30.5019 7.86911 27.7381 6.26418 26.3877C6.23389 27.267 6.20361 28.4605 6.20361 29.8423C6.20361 30.9416 6.20361 31.5069 6.23389 32.3234C6.29446 34.0822 6.56699 37.5369 6.56699 37.5369C6.60737 37.5787 6.64775 37.6206 6.68812 37.6625C6.7285 37.7044 6.75878 37.7462 6.77897 37.7881C6.81934 37.83 6.85972 37.8614 6.90009 37.8823C6.94047 37.9242 6.97075 37.9661 6.99094 38.008C9.83743 40.8659 14.198 41.0858 17.741 39.5783C21.3142 38.0708 24.2516 35.1186 27.0072 32.135C28.0974 30.9206 29.1774 29.7062 30.2474 28.4919C28.6424 26.8273 26.8861 25.3198 25.3114 23.5925Z" fill="#2CA64A"/>
<path d="M6.68875 16.4948C7.83946 12.7574 8.92961 9.30274 10.9282 8.86306C12.6543 8.51759 14.3198 10.4648 15.3796 11.6582C21.1937 18.2849 27.4015 24.5662 33.8515 30.6276C40.0593 36.5005 42.6333 37.3485 44.5107 38.0394C48.5988 39.4527 53.5347 39.1073 56.6537 36.0294C58.6523 34.0508 59.3791 31.7582 60.0453 29.3085C61.4383 24.2207 60.5904 19.7924 59.9242 16.5262C59.803 15.919 59.6718 15.3223 59.5305 14.736C59.369 14.1288 59.1974 13.5321 59.0157 12.9459C58.8542 12.3596 58.6624 11.7838 58.4404 11.2185C58.2385 10.6323 58.0164 10.067 57.7742 9.52259C57.7742 10.2345 57.754 10.9568 57.7136 11.6896C57.6934 12.4015 57.653 13.1238 57.5925 13.8566C57.5521 14.5685 57.4915 15.2804 57.4108 15.9923C57.33 16.7251 57.2392 17.4474 57.1382 18.1593C56.3206 24.0951 55.3213 25.3199 54.8671 25.8224C53.0805 27.7068 50.3551 28.4605 47.8114 28.2407C45.2678 28.0209 42.8452 26.9216 40.6649 25.5712C31.8832 20.1693 26.0994 10.8731 18.4684 3.86947C15.4705 1.10572 12.9874 0.163532 10.5345 0.603219C7.47608 1.16853 5.08382 3.58681 3.56972 6.28774C-0.397192 13.3856 -0.972546 22.8074 1.41972 30.5648C2.26761 33.2657 3.66057 35.8096 5.7803 37.5683C5.20494 37.1287 5.20494 33.3913 5.14438 32.669C5.104 32.2502 5.07372 31.821 5.05353 31.3813C5.03335 30.9626 5.01316 30.5438 4.99297 30.1251C4.99297 29.6854 4.98288 29.2562 4.96269 28.8374C4.96269 28.3977 4.97278 27.9685 4.99297 27.5498C4.99297 27.131 5.00306 26.7123 5.02325 26.2935C5.04344 25.8748 5.07372 25.456 5.1141 25.0373C5.15447 24.6185 5.19485 24.1998 5.23522 23.781C5.2756 23.3623 5.32607 22.9435 5.38663 22.5248C5.4472 22.0223 5.52795 21.5093 5.62889 20.9859C5.70964 20.4834 5.81058 19.9809 5.93171 19.4784C6.03265 18.9759 6.14368 18.4734 6.26481 17.9709C6.40612 17.4684 6.54744 16.9763 6.68875 16.4948Z" fill="#0989D4"/>
<path d="M88.3118 3.09091V22H84.8586L76.6321 10.0987H76.4936V22H72.4957V3.09091H76.0042L84.1662 14.983H84.3324V3.09091H88.3118ZM100.115 15.9616V7.81818H104.049V22H100.272V19.424H100.125C99.8046 20.255 99.2722 20.9228 98.5274 21.4276C97.7887 21.9323 96.887 22.1847 95.8221 22.1847C94.8742 22.1847 94.0402 21.9692 93.32 21.5384C92.5998 21.1075 92.0366 20.495 91.6304 19.701C91.2303 18.907 91.0271 17.956 91.021 16.848V7.81818H94.9542V16.1463C94.9604 16.9834 95.1851 17.6451 95.6282 18.1314C96.0714 18.6177 96.6654 18.8608 97.4102 18.8608C97.8842 18.8608 98.3273 18.7531 98.7397 18.5376C99.1521 18.3161 99.4845 17.9898 99.7369 17.5589C99.9954 17.1281 100.122 16.5956 100.115 15.9616ZM110.608 3.09091V22H106.675V3.09091H110.608ZM113.239 22V7.81818H117.172V22H113.239ZM115.215 5.99006C114.63 5.99006 114.128 5.79616 113.71 5.40838C113.297 5.01444 113.091 4.54356 113.091 3.99574C113.091 3.45407 113.297 2.98935 113.71 2.60156C114.128 2.20762 114.63 2.01065 115.215 2.01065C115.799 2.01065 116.298 2.20762 116.71 2.60156C117.129 2.98935 117.338 3.45407 117.338 3.99574C117.338 4.54356 117.129 5.01444 116.71 5.40838C116.298 5.79616 115.799 5.99006 115.215 5.99006ZM123.736 13.8011V22H119.803V7.81818H123.551V10.3203H123.718C124.031 9.4955 124.558 8.84304 125.296 8.36293C126.035 7.87666 126.931 7.63352 127.983 7.63352C128.968 7.63352 129.827 7.84896 130.559 8.27983C131.292 8.7107 131.861 9.32623 132.267 10.1264C132.674 10.9205 132.877 11.8684 132.877 12.9702V22H128.943V13.6719C128.95 12.804 128.728 12.1269 128.279 11.6406C127.829 11.1482 127.211 10.902 126.423 10.902C125.893 10.902 125.426 11.0159 125.019 11.2436C124.619 11.4714 124.305 11.8037 124.078 12.2408C123.856 12.6716 123.742 13.1918 123.736 13.8011ZM135.383 22V19.6548L142.326 11.0589V10.9574H135.623V7.81818H147.062V10.3757L140.544 18.7592V18.8608H147.302V22H135.383Z" fill="#0989D4"/>
<path d="M80.6423 32H79.4094C79.3365 31.6454 79.2089 31.3338 79.0266 31.0653C78.8476 30.7969 78.6288 30.5715 78.3703 30.3892C78.1151 30.2036 77.8317 30.0644 77.5202 29.9716C77.2086 29.8788 76.8838 29.8324 76.5457 29.8324C75.9293 29.8324 75.3708 29.9882 74.8703 30.2997C74.3732 30.6113 73.9771 31.0703 73.6821 31.6768C73.3904 32.2834 73.2446 33.0275 73.2446 33.9091C73.2446 34.7907 73.3904 35.5348 73.6821 36.1413C73.9771 36.7479 74.3732 37.2069 74.8703 37.5185C75.3708 37.83 75.9293 37.9858 76.5457 37.9858C76.8838 37.9858 77.2086 37.9394 77.5202 37.8466C77.8317 37.7538 78.1151 37.6162 78.3703 37.4339C78.6288 37.2483 78.8476 37.0213 79.0266 36.7528C79.2089 36.4811 79.3365 36.1695 79.4094 35.8182H80.6423C80.5495 36.3385 80.3805 36.8042 80.1352 37.2152C79.89 37.6262 79.585 37.9759 79.2205 38.2642C78.8559 38.5492 78.4465 38.7663 77.9925 38.9155C77.5417 39.0646 77.0595 39.1392 76.5457 39.1392C75.6774 39.1392 74.9051 38.9271 74.229 38.5028C73.5528 38.0786 73.0209 37.4754 72.6331 36.6932C72.2453 35.911 72.0514 34.983 72.0514 33.9091C72.0514 32.8352 72.2453 31.9072 72.6331 31.125C73.0209 30.3428 73.5528 29.7396 74.229 29.3153C74.9051 28.8911 75.6774 28.679 76.5457 28.679C77.0595 28.679 77.5417 28.7536 77.9925 28.9027C78.4465 29.0518 78.8559 29.2706 79.2205 29.5589C79.585 29.844 79.89 30.192 80.1352 30.603C80.3805 31.0107 80.5495 31.4763 80.6423 32ZM85.2979 39.1591C84.6085 39.1591 84.0036 38.995 83.4832 38.6669C82.9662 38.3388 82.5618 37.8797 82.2702 37.2898C81.9818 36.6998 81.8376 36.0104 81.8376 35.2216C81.8376 34.4261 81.9818 33.7318 82.2702 33.1385C82.5618 32.5452 82.9662 32.0845 83.4832 31.7564C84.0036 31.4283 84.6085 31.2642 85.2979 31.2642C85.9873 31.2642 86.5905 31.4283 87.1075 31.7564C87.6279 32.0845 88.0322 32.5452 88.3206 33.1385C88.6123 33.7318 88.7581 34.4261 88.7581 35.2216C88.7581 36.0104 88.6123 36.6998 88.3206 37.2898C88.0322 37.8797 87.6279 38.3388 87.1075 38.6669C86.5905 38.995 85.9873 39.1591 85.2979 39.1591ZM85.2979 38.1051C85.8215 38.1051 86.2524 37.9709 86.5905 37.7024C86.9286 37.4339 87.1788 37.081 87.3412 36.6435C87.5036 36.206 87.5848 35.732 87.5848 35.2216C87.5848 34.7112 87.5036 34.2356 87.3412 33.7947C87.1788 33.3539 86.9286 32.9976 86.5905 32.7259C86.2524 32.4541 85.8215 32.3182 85.2979 32.3182C84.7742 32.3182 84.3433 32.4541 84.0053 32.7259C83.6672 32.9976 83.417 33.3539 83.2545 33.7947C83.0921 34.2356 83.0109 34.7112 83.0109 35.2216C83.0109 35.732 83.0921 36.206 83.2545 36.6435C83.417 37.081 83.6672 37.4339 84.0053 37.7024C84.3433 37.9709 84.7742 38.1051 85.2979 38.1051ZM90.2691 39V31.3636H91.4026V32.5568H91.5021C91.6612 32.1491 91.918 31.8326 92.2727 31.6072C92.6273 31.3786 93.0532 31.2642 93.5504 31.2642C94.0542 31.2642 94.4734 31.3786 94.8082 31.6072C95.1462 31.8326 95.4097 32.1491 95.5987 32.5568H95.6782C95.8738 32.1624 96.1671 31.8492 96.5582 31.6172C96.9493 31.3819 97.4183 31.2642 97.9651 31.2642C98.6479 31.2642 99.2064 31.478 99.6406 31.9055C100.075 32.3298 100.292 32.991 100.292 33.8892V39H99.1185V33.8892C99.1185 33.3258 98.9644 32.9231 98.6562 32.6811C98.348 32.4392 97.985 32.3182 97.5674 32.3182C97.0305 32.3182 96.6145 32.4806 96.3195 32.8054C96.0246 33.1269 95.8771 33.5346 95.8771 34.0284V39H94.6839V33.7699C94.6839 33.3357 94.543 32.986 94.2613 32.7209C93.9796 32.4524 93.6167 32.3182 93.1725 32.3182C92.8676 32.3182 92.5826 32.3994 92.3174 32.5618C92.0556 32.7242 91.8435 32.9496 91.681 33.2379C91.522 33.523 91.4424 33.8527 91.4424 34.2273V39H90.2691ZM102.157 39V31.3636H103.291V32.5568H103.39C103.549 32.1491 103.806 31.8326 104.161 31.6072C104.515 31.3786 104.941 31.2642 105.438 31.2642C105.942 31.2642 106.361 31.3786 106.696 31.6072C107.034 31.8326 107.298 32.1491 107.487 32.5568H107.566C107.762 32.1624 108.055 31.8492 108.446 31.6172C108.837 31.3819 109.306 31.2642 109.853 31.2642C110.536 31.2642 111.094 31.478 111.529 31.9055C111.963 32.3298 112.18 32.991 112.18 33.8892V39H111.007V33.8892C111.007 33.3258 110.852 32.9231 110.544 32.6811C110.236 32.4392 109.873 32.3182 109.455 32.3182C108.918 32.3182 108.502 32.4806 108.208 32.8054C107.913 33.1269 107.765 33.5346 107.765 34.0284V39H106.572V33.7699C106.572 33.3357 106.431 32.986 106.149 32.7209C105.868 32.4524 105.505 32.3182 105.06 32.3182C104.756 32.3182 104.471 32.3994 104.205 32.5618C103.944 32.7242 103.731 32.9496 103.569 33.2379C103.41 33.523 103.33 33.8527 103.33 34.2273V39H102.157ZM118.858 35.8778V31.3636H120.031V39H118.858V37.7074H118.778C118.599 38.0952 118.321 38.425 117.943 38.6967C117.565 38.9652 117.088 39.0994 116.511 39.0994C116.034 39.0994 115.609 38.995 115.238 38.7862C114.867 38.5741 114.575 38.2559 114.363 37.8317C114.151 37.4041 114.045 36.8655 114.045 36.2159V31.3636H115.218V36.1364C115.218 36.6932 115.374 37.1373 115.686 37.4688C116.001 37.8002 116.402 37.9659 116.889 37.9659C117.18 37.9659 117.477 37.8913 117.779 37.7422C118.084 37.593 118.339 37.3643 118.544 37.0561C118.753 36.7479 118.858 36.3551 118.858 35.8778ZM123.073 34.4062V39H121.9V31.3636H123.033V32.5568H123.133C123.312 32.169 123.584 31.8575 123.948 31.6222C124.313 31.3835 124.783 31.2642 125.36 31.2642C125.877 31.2642 126.33 31.3703 126.717 31.5824C127.105 31.7912 127.407 32.1094 127.622 32.5369C127.838 32.9612 127.945 33.4981 127.945 34.1477V39H126.772V34.2273C126.772 33.6274 126.616 33.16 126.305 32.8253C125.993 32.4872 125.566 32.3182 125.022 32.3182C124.647 32.3182 124.313 32.3994 124.018 32.5618C123.726 32.7242 123.496 32.9612 123.327 33.2727C123.158 33.5843 123.073 33.9621 123.073 34.4062ZM129.809 39V31.3636H130.983V39H129.809ZM130.406 30.0909C130.177 30.0909 129.98 30.013 129.814 29.8572C129.652 29.7015 129.571 29.5142 129.571 29.2955C129.571 29.0767 129.652 28.8894 129.814 28.7337C129.98 28.5779 130.177 28.5 130.406 28.5C130.635 28.5 130.83 28.5779 130.993 28.7337C131.158 28.8894 131.241 29.0767 131.241 29.2955C131.241 29.5142 131.158 29.7015 130.993 29.8572C130.83 30.013 130.635 30.0909 130.406 30.0909ZM136.173 31.3636V32.358H132.215V31.3636H136.173ZM133.369 29.5341H134.542V36.8125C134.542 37.1439 134.59 37.3925 134.686 37.5582C134.785 37.7206 134.911 37.83 135.064 37.8864C135.22 37.9394 135.384 37.9659 135.556 37.9659C135.685 37.9659 135.791 37.9593 135.874 37.946C135.957 37.9295 136.023 37.9162 136.073 37.9062L136.312 38.9602C136.232 38.9901 136.121 39.0199 135.979 39.0497C135.836 39.0829 135.656 39.0994 135.437 39.0994C135.105 39.0994 134.781 39.0282 134.462 38.8857C134.147 38.7431 133.886 38.526 133.677 38.2344C133.471 37.9427 133.369 37.5748 133.369 37.1307V29.5341ZM138.413 41.8636C138.214 41.8636 138.037 41.8471 137.881 41.8139C137.725 41.7841 137.618 41.7543 137.558 41.7244L137.856 40.6903C138.141 40.7633 138.393 40.7898 138.612 40.7699C138.831 40.75 139.025 40.6522 139.194 40.4766C139.366 40.3042 139.523 40.0241 139.666 39.6364L139.885 39.0398L137.061 31.3636H138.334L140.442 37.4489H140.521L142.629 31.3636H143.902L140.66 40.1136C140.514 40.508 140.334 40.8345 140.118 41.093C139.903 41.3549 139.653 41.5488 139.368 41.6747C139.086 41.8007 138.768 41.8636 138.413 41.8636Z" fill="#0989D4"/>
</svg>
